<?xml version="1.0" standalone="no"?><!DOCTYPE svg PUBLIC "-//W3C//DTD SVG 1.1//EN" "http://www.w3.org/Graphics/SVG/1.1/DTD/svg11.dtd"><svg t="1601884231130" class="icon" viewBox="0 0 1024 1024" version="1.1" xmlns="http://www.w3.org/2000/svg" p-id="3299" xmlns:xlink="http://www.w3.org/1999/xlink" width="200" height="200"><defs><style type="text/css"></style></defs><path d="M758.4768 503.1424a37.376 37.376 0 0 1-22.912-10.4192 11.3408 11.3408 0 0 1-1.8432-12.8l3.6864-5.8368a13.2864 13.2864 0 0 0 2.3808-3.4816c0.768-1.5616 2.3552-4.864 4.736-9.9328 2.0992-4.9152 3.84-9.984 5.248-15.1296 1.0752-5.0688 2.1248-11.264 2.9184-18.6368 0.768-6.9888 0.512-14.08-0.7936-20.992a89.1648 89.1648 0 0 0-6.8608-21.5296 72.96 72.96 0 0 0-14.7456-20.992 78.848 78.848 0 0 0-42.6496-20.9664 160.1536 160.1536 0 0 0-52.6336-0.5888c-16.7936 2.5088-33.408 5.9904-49.7664 10.4192-15.7952 4.2752-28.416 8.32-38.7072 12.2112l-15.2576 7.0144a143.104 143.104 0 0 1-19.2 4.6592 22.9888 22.9888 0 0 1-11.8784-0.5888 33.8432 33.8432 0 0 1-6.3232-3.5328 9.3952 9.3952 0 0 1-1.8176-8.1408c0.512-4.2752 0.768-7.9872 1.28-11.0848a117.248 117.248 0 0 1 2.9184-14.5664c1.5872-6.6048 2.6368-11.8528 3.4304-15.616a165.0944 165.0944 0 0 0-1.8432-26.24 131.072 131.072 0 0 0-7.3728-27.3408 59.904 59.904 0 0 0-17.1264-24.448 87.168 87.168 0 0 0-28.16-15.1296 108.032 108.032 0 0 0-43.6992-3.5328c-20.864 2.176-41.3696 6.8608-61.0816 14.0032a375.7056 375.7056 0 0 0-82.944 41.3184 498.2784 498.2784 0 0 0-73.1648 57.088 1385.4208 1385.4208 0 0 0-56.8832 57.6512 898.816 898.816 0 0 0-39.7312 45.44l-12.9024 18.6368a390.6304 390.6304 0 0 0-57.3952 100.1728A213.76 213.76 0 0 0 0 635.9296v24.448a249.6 249.6 0 0 0 100.0448 171.8272 375.7056 375.7056 0 0 0 89.4976 46.592c32.1024 12.1856 65.2288 21.5552 98.9952 27.9552 33.0752 6.016 66.4832 10.0864 100.0448 12.2112a606.7968 606.7968 0 0 0 179.5584-13.3888c61.44-13.312 120.064-37.1712 173.2096-70.4768a287.616 287.616 0 0 0 112.9472-119.8592c12.416-23.8592 19.456-50.0992 20.5312-76.9024a112.1536 112.1536 0 0 0-12.3648-58.8032 150.2464 150.2464 0 0 0-33.1776-40.192 166.6048 166.6048 0 0 0-38.7072-25.6512c-10.2144-4.7872-20.992-8.2944-32.1024-10.4192v-0.128zM401.4848 865.3312a367.2064 367.2064 0 0 1-214.8352-48.9216c-58.9568-36.48-88.448-82.688-88.448-138.624 0-55.1424 29.4912-102.6816 87.936-142.6944a459.1872 459.1872 0 0 1 430.6944-23.8848c58.4448 31.8464 87.68 75.3408 87.68 130.4576 0 55.9104-29.8496 106.1888-89.5232 150.8608a376.5504 376.5504 0 0 1-213.504 72.7808v0.0256z m-33.9712-322.688c-20.992 1.8944-41.5488 7.168-60.8 15.6416a135.3472 135.3472 0 0 0-42.1376 27.9552 175.2832 175.2832 0 0 0-25.8048 33.8688c-6.6048 11.0848-11.5712 23.04-14.72 35.5328a233.6 233.6 0 0 0-6.3232 54.7072l1.024 9.344v4.6592c0.4096 4.7104 1.2032 9.3952 2.3808 13.952 1.4336 6.656 3.6352 13.1072 6.6048 19.2512 3.456 7.04 7.9872 13.5168 13.4144 19.2 6.2976 7.0656 13.7728 13.0048 22.1184 17.5104a219.8528 219.8528 0 0 0 144 22.6816 181.7088 181.7088 0 0 0 107.6736-66.9696 102.016 102.016 0 0 0 21.5808-48.9216 130.9696 130.9696 0 0 0-2.3552-58.8032 145.8688 145.8688 0 0 0-26.3168-54.1952 118.5024 118.5024 0 0 0-55.552-37.8624 182.2464 182.2464 0 0 0-84.7872-7.552z m-42.112 220.1856a54.0416 54.0416 0 0 1-25.2672-1.7408 174.7456 174.7456 0 0 1-10.5472-4.0704 24.2176 24.2176 0 0 1-8.704-6.4 95.5392 95.5392 0 0 1-6.2976-8.1664 27.776 27.776 0 0 1-4.736-9.3184 31.3344 31.3344 0 0 1-1.8432-11.0848 49.152 49.152 0 0 1 7.1168-25.0368 66.816 66.816 0 0 1 19.2-20.992 53.504 53.504 0 0 1 27.648-9.9072c6.7584-0.768 13.568-0.5632 20.2752 0.5888 6.016 0.9216 11.8016 2.8928 17.1008 5.8112 4.5056 2.6112 8.6528 5.7344 12.3904 9.344 3.456 3.4048 5.9904 7.6032 7.3728 12.2112 1.6128 4.864 2.4064 9.984 2.3552 15.1296 0 8.704-2.56 17.1776-7.3728 24.448a70.9632 70.9632 0 0 1-20.5312 19.7888c-8.448 5.376-18.1248 8.6016-28.16 9.3184v0.0768z m99.5072-83.8656a26.5216 26.5216 0 0 1-17.1008 5.1968 13.4656 13.4656 0 0 1-12.1088-7.552l-2.3808-4.6592a10.5216 10.5216 0 0 1-1.3056-4.6592v-4.5056a12.5952 12.5952 0 0 1 1.3056-5.8112l2.3808-4.6848a7.3472 7.3472 0 0 1 3.4048-3.5072l3.4304-4.6592a24.832 24.832 0 0 1 18.176-5.8112 20.5056 20.5056 0 0 1 15.2576 19.7888c-0.4864 3.8656-1.6384 7.6288-3.4304 11.0848a48.768 48.768 0 0 1-7.6288 9.9072v-0.128z m415.4368-243.4816a24.6528 24.6528 0 0 0 12.9024-3.5072c3.7632-2.0992 6.912-5.12 9.216-8.704 2.304-3.3536 3.9168-7.1168 4.736-11.0848a4.736 4.736 0 0 0 1.3056-3.5328c9.216-88.576-21.8368-139.008-93.696-151.424a165.6832 165.6832 0 0 0-58.4704-1.152 24.4992 24.4992 0 0 0-14.208 4.0704c-3.9168 2.8672-7.296 6.4-9.984 10.4192a25.1392 25.1392 0 0 0-3.968 13.3632c-0.1792 7.424 2.7648 14.592 8.1664 19.7888 5.248 5.3248 12.4928 8.2688 19.9936 8.192 60.8256-14.0288 93.568 5.376 98.2016 58.24 1.6384 12.4672 0.8192 25.1136-2.3552 37.2992-0.0768 7.3984 2.8672 14.5152 8.1408 19.7632 5.2736 5.3248 12.4928 8.2688 20.0192 8.1664v0.1024z m-20.0192-328.3968a353.024 353.024 0 0 0-137.9328 4.6592 3.4304 3.4304 0 0 0-2.3808 1.152l-1.3056 2.3296-1.0496 1.152a37.888 37.888 0 0 0-21.0688 14.592c-5.3248 6.8352-8.192 15.232-8.1664 23.8592-0.256 10.8544 3.9168 21.376 11.5968 29.1072 7.3728 7.5264 17.5616 11.776 28.16 11.6736h3.4304a25.4208 25.4208 0 0 0 5.248-1.1264c2.944-0.7936 5.9392-1.3824 8.96-1.7664 3.4048-0.512 6.7328-1.28 9.984-2.3296 3.4304-1.1776 6.6048-2.3552 9.216-3.5072 5.12-1.4848 10.496-2.0736 15.8208-1.7408 9.5744 0.1024 19.1488 0.6912 28.672 1.7408 12.7744 1.536 25.3184 4.4544 37.4016 8.7296 14.08 4.8384 27.8272 10.6752 41.0624 17.4848 14.9248 7.8848 28.7488 17.664 41.088 29.1072a195.6352 195.6352 0 0 1 35.5328 43.1104 189.696 189.696 0 0 1 11.8528 132.8896 4.2496 4.2496 0 0 1-0.7936 2.3552c-0.256 0.768-0.7936 2.7136-1.5872 5.8112-0.768 3.072-1.5872 5.9648-2.3552 8.704-0.7936 2.7392-1.5872 6.2208-2.3808 10.4448a63.232 63.232 0 0 0-1.3056 11.0592c-0.1792 6.3744 1.9712 12.5696 6.0416 17.4848 3.7376 4.6592 8.7808 8.0896 14.4896 9.9072 6.656 2.0224 13.568 2.9952 20.5312 2.8928 10.496 0.0256 20.5568-4.1728 27.8784-11.648 7.296-7.4752 11.2128-17.5616 10.8288-27.9552 8.832-28.16 14.1312-57.3184 15.7952-86.784 1.3568-24.3968-0.5888-48.896-5.8112-72.8064a246.5536 246.5536 0 0 0-22.8864-58.8032 204.2368 204.2368 0 0 0-35.0208-46.592 294.912 294.912 0 0 0-44.4928-34.9696 296.448 296.448 0 0 0-95.0528-40.192v-0.0256z" p-id="3300"></path></svg>