<?xml version="1.0" standalone="no"?><!DOCTYPE svg PUBLIC "-//W3C//DTD SVG 1.1//EN" "http://www.w3.org/Graphics/SVG/1.1/DTD/svg11.dtd"><svg t="1601207643398" class="icon" viewBox="0 0 2226 1024" version="1.1" xmlns="http://www.w3.org/2000/svg" p-id="3308" xmlns:xlink="http://www.w3.org/1999/xlink" width="434.765625" height="200"><defs><style type="text/css"></style></defs><path d="M1819.973647 11.910754c16.590596 2.64275 28.629789-3.670486 41.403079 0 4.551402 1.321375 5.579138 6.753694 10.570999 8.515527 8.221888 2.64275 13.947846-1.908653 23.344289 0a64.453729 64.453729 0 0 0 7.487791 8.515526c7.194152 4.845041 22.316553 7.047333 32.887552 12.773291 6.753694 3.670486 12.479651 11.305096 18.05879 12.77329s14.681943-2.202291 22.316553 0 7.340971 10.130541 12.77329 12.773291c7.63461 1.321375 16.296957-1.761833 22.316554 0s5.13868 6.019597 9.543263 8.515526h30.83208c4.845041 0 3.964125 6.753694 7.340971 8.515527 11.158277 2.64275 22.757012-3.523666 33.915288 0 5.285499 1.615014 14.681943 16.737415 20.261082 21.288818a171.631913 171.631913 0 0 1 22.316553 19.086525 167.22733 167.22733 0 0 1 12.77329 29.363886 161.501372 161.501372 0 0 0 19.086526 41.403079c0 13.066929 0 25.84022-1.027736 39.347607a287.031984 287.031984 0 0 0-1.027736 38.173052 225.221005 225.221005 0 0 0 10.570999 30.83208 421.665401 421.665401 0 0 1 2.055472 60.489605 189.690703 189.690703 0 0 1-0.587278 52.267717c-2.349111 8.368707-12.186013 17.765151-13.801026 27.602053a213.769089 213.769089 0 0 0 2.055472 33.915288 78.254756 78.254756 0 0 1-24.372025 55.204105c-2.202291 12.186013-1.468194 25.6934-4.257764 38.173052a137.276166 137.276166 0 0 0-6.313235 27.602053c0 11.158277 1.468194 23.491109 2.055472 35.089843a887.963909 887.963909 0 0 1 2.055472 104.094976c-0.880917 14.681943-7.340971 27.308414-8.515527 40.375343a537.79957 537.79957 0 0 1-2.202292 60.489605c-1.908653 9.396443-5.725958 18.352429-7.48779 27.602053s-2.936389 19.526984-5.2855 29.363885a183.817926 183.817926 0 0 1-22.022914 46.101301c-6.313235 0-8.515527 9.543263-14.681943 13.801027a190.865258 190.865258 0 0 1-44.045829 13.801026c-7.194152 1.908653-14.681943 3.964125-22.316553 6.313235a105.709989 105.709989 0 0 1-21.288818 7.487791c-8.075069 0-14.681943-7.928249-21.288817-9.543263a96.166726 96.166726 0 0 1-65.921924 11.598735c0-4.698222 4.551402-9.102805 7.487791-12.77329a88.091658 88.091658 0 0 0 8.515527-94.551713c11.451915-7.63461 29.363886-9.396443 36.11758-21.288817 0-5.579138-7.928249-2.64275-8.515527-7.487791-4.991861-14.681943-11.451915-29.363886-18.05879-44.045829a70.473326 70.473326 0 0 1-6.313235-13.801026 205.547201 205.547201 0 0 1 3.230027-36.11758c3.523666-33.768469 7.78143-71.94152 11.745554-106.150447a226.101921 226.101921 0 0 1-21.288817-39.347607 176.183315 176.183315 0 0 1-14.681943-45.660843c-0.734097-7.194152 2.49593-15.709679 1.027736-23.344289-0.880917-4.991861-7.194152-9.690082-8.515527-14.681943a176.183315 176.183315 0 0 1-1.027736-29.363886 266.036806 266.036806 0 0 1 0-44.045829c0.734097-4.257763-5.285499-5.579138-6.313235-9.543262-3.230027-11.745554 4.404583-33.47483 3.230027-50.946342-0.734097-11.451915-6.166416-22.022914-7.487791-31.859817a710.312399 710.312399 0 0 1 0-78.548394v-38.61351a202.170354 202.170354 0 0 1 0-38.173052c1.468194-4.991861 5.285499-4.551402 7.487791-9.543263 3.376847-22.169734-4.698222-39.934885 0-57.259577 1.174555-4.698222 7.194152-7.194152 8.515527-11.745555a142.414847 142.414847 0 0 0 0-39.347607c-1.321375-5.13868-11.011457-13.654207-17.031054-19.086525-19.233345-17.765151-38.46669-34.649385-55.204105-53.001814a5.285499 5.285499 0 0 1-2.49593-3.376847z m151.66447 230.506504a136.101611 136.101611 0 0 0 0 47.716314c0 16.884234 0 36.704857 1.027736 55.204106a544.846902 544.846902 0 0 0 1.027736 55.204105c0.880917 5.432319 4.991861 10.570999 6.313236 15.856499a284.536054 284.536054 0 0 0 9.543263 41.403079c1.908653 4.110944 4.991861 6.460055 6.313235 10.570999 0 124.209237-1.908653 245.188447-1.027736 369.544503a130.816112 130.816112 0 0 0 25.546581-37.145315 140.506194 140.506194 0 0 0 8.515527-24.372026c2.349111-9.690082 1.321375-18.792887 3.230027-29.363885 3.230027-17.91197 18.352429-33.915288 21.288817-51.974078a361.909893 361.909893 0 0 0 0-50.946342c0-35.089844 1.174555-65.921924 3.230028-98.809476a202.170354 202.170354 0 0 1 4.257763-47.716315c2.49593-7.340971 10.717818-12.479651 13.801027-20.114262s3.670486-23.931567 7.487791-35.089843c2.936389-8.662346 9.396443-14.681943 10.570998-21.288818a247.684377 247.684377 0 0 0 0-36.117579 228.744671 228.744671 0 0 0 0-36.11758c-0.880917-3.964125-4.551402-6.460055-6.313235-10.570999-5.432319-12.479651-6.313235-32.447094-10.570999-41.403079-8.075069-16.737415-30.9789-18.939706-29.363886-40.375343-13.066929 2.349111-17.031054-12.92011-27.602053-15.856498-13.507388-3.817305-27.161594 0.734097-45.660842-1.027736-1.615014-0.293639-1.615014 1.174555-1.615014 2.789569z" p-id="3309" fill="#4d4440"></path><path d="M1742.452988 383.657549c0.880917 8.662346 2.64275 19.820623-3.230028 24.372025a41.25626 41.25626 0 0 1 44.045829 11.745554c2.49593 2.349111 4.991861 7.047333 8.515527 10.570999s8.221888 5.432319 9.543263 8.515527c2.349111 5.285499 0 12.92011 2.055472 17.031054s11.305096 4.991861 15.856498 8.515527c2.64275 11.598735 3.964125 24.372025 7.487791 37.145316 0.880917 3.523666 3.523666 7.047333 4.257764 10.570999 4.551402 21.729276 0 46.24812 3.083208 67.977395 1.615014 10.570999 6.900513 19.526984 7.487791 29.363886 2.789569 5.579138 8.809166-3.083208 10.570999 2.055472 7.047333 37.732593 19.967442 82.659339 9.543263 122.153765 0.734097 4.845041 8.955985 2.49593 10.570999 6.313236a124.356057 124.356057 0 0 1 10.570998 27.602053c0 3.670486-3.964125 7.78143-4.257763 11.598735a171.778732 171.778732 0 0 0 3.230027 18.058789 138.744361 138.744361 0 0 1-1.027736 24.372026 167.961427 167.961427 0 0 0-3.230027 22.316553c0 4.845041 3.817305 9.396443 4.257763 13.801026a133.89932 133.89932 0 0 1-6.313235 31.859816c-5.872777 31.272538-10.717818 64.160091-18.05879 93.377158-12.039193-5.432319-23.05065-6.313235-32.887552-11.745555a176.183315 176.183315 0 0 1-26.574317-23.344289 77.814298 77.814298 0 0 0-64.747368-25.546581 107.471822 107.471822 0 0 1 10.570999-44.045829c4.845041-13.507388 9.836902-27.308414 13.801026-42.430815a381.730516 381.730516 0 0 0 5.2855-106.150447 460.425731 460.425731 0 0 0-11.451916-67.977396 211.126339 211.126339 0 0 0-20.261081-60.489605 22.169734 22.169734 0 0 0-11.598735-10.570999c0-21.582456 10.717818-39.053968 7.340971-58.727771a85.155269 85.155269 0 0 0-9.543262-20.114262 187.488411 187.488411 0 0 0-37.145316-50.946342 58.727772 58.727772 0 0 1-8.515527 36.117579 90.734407 90.734407 0 0 0-8.515527 19.086526 238.434753 238.434753 0 0 0 4.257764 51.974078c3.230027 34.208927 6.606874 66.80284 10.570998 101.892684a239.462489 239.462489 0 0 1 5.2855 49.918606c0 4.845041-4.551402 8.075069-5.2855 12.77329 1.908653 7.047333 6.460055 9.983721 7.487791 19.086526a239.609309 239.609309 0 0 1-1.027736 60.489605 164.7314 164.7314 0 0 0-5.285499 17.031054 240.049767 240.049767 0 0 0 5.285499 41.403079c0.734097 6.753694 1.468194 14.681943 2.055472 21.288817 1.321375 14.681943 3.523666 27.455233-7.487791 32.887553a224.046449 224.046449 0 0 1-7.48779 75.318367c-6.019597-6.166416-6.313235-14.681943-9.543263-22.316553a226.982838 226.982838 0 0 0-70.032868-87.063922 123.47514 123.47514 0 0 1-35.089844-27.602053 839.366678 839.366678 0 0 1 33.034372-98.662656c2.789569-5.872777 8.368707-11.011457 9.543263-17.031054a40.081704 40.081704 0 0 0-9.543263-35.823941v-107.178183c0-36.851677 2.936389-73.409715 0-107.178184 0-7.78143-3.817305-14.681943-5.2855-23.344289s0-18.499248-2.055472-26.574317-7.194152-13.213749-8.515527-20.114262 0.734097-15.56286 0-23.344289-4.991861-19.233345-6.313235-29.363886c-0.880917-5.872777 0-11.745554-1.027736-17.031054s-4.404583-10.424179-5.2855-16.003317 0-9.836902-1.027736-14.681943-1.761833-9.249624-2.202291-13.801027a274.845972 274.845972 0 0 0 0-35.089843c-1.468194-6.606874-9.690082-9.983721-8.515527-19.086526-1.174555-3.670486-6.019597-3.817305-7.487791-7.340972a574.063969 574.063969 0 0 1 0-74.290631c25.106122-20.55472 54.323189-36.998496 73.409715-63.719632a82.659339 82.659339 0 0 0-22.316553-7.340972c-4.110944 0-6.166416 4.991861-10.570999 6.313236a26.280678 26.280678 0 0 1-14.681943 0c-9.249624-33.621649-37.438954-48.156773-61.664161-66.94966a124.209237 124.209237 0 0 1-15.856498-3.083208c-3.817305-1.027736-12.479651 0-11.598735-6.313236s9.690082-3.083208 14.681943-3.230027c8.809166 0 17.324693 0 25.546581-1.027736 23.05065-1.615014 50.065425 1.761833 70.032868-1.027736 7.78143-1.174555 13.947846-6.313235 21.288817-6.313235a22.757012 22.757012 0 0 1 17.031054 8.515526c11.158277 1.468194 24.665664-1.908653 37.145315 0a230.653324 230.653324 0 0 1 32.887553 10.570999 209.364506 209.364506 0 0 0 31.859816 10.570999c8.075069 1.174555 16.150137 0 23.344289 1.027736 23.491109 5.725958 33.32801 26.721136 51.974078 35.089844 7.928249 20.55472 19.820623 41.843537 29.363886 62.691896a84.714811 84.714811 0 0 1 10.570999 48.89087 176.183315 176.183315 0 0 1-1.027736 21.288818c-1.468194 7.78143-7.194152 13.507388-8.515527 21.288817-1.761833 11.451915 1.321375 22.169734 0 33.915288a186.754314 186.754314 0 0 1-23.637928 60.342785 80.750686 80.750686 0 0 1-69.005132 44.926746z m-76.492923-245.335267c1.027736 70.766965-1.468194 146.819429 0 215.530923 0 3.670486-1.908653 9.836902 2.055472 12.77329a45.220384 45.220384 0 0 0 25.546581-2.055472c24.225206-9.102805 27.161594-29.363886 36.11758-55.204105a126.851987 126.851987 0 0 0 6.460054-14.681943c1.174555-7.63461-0.880917-14.681943 1.027736-22.316554 1.321375-4.991861 6.460055-10.717818 7.487791-16.003317a99.249934 99.249934 0 0 0-3.230027-44.045829 185.873398 185.873398 0 0 0-30.83208-44.045829c-12.479651-14.681943-27.455233-31.859816-42.430815-32.887552a2.936389 2.936389 0 0 0-2.202292 2.936388zM456.608425 35.255043c6.313235 5.725958 9.983721 14.681943 18.05879 18.05879a66.068743 66.068743 0 0 1 14.094665-1.027736c12.479651 14.681943 24.518845 28.629789 38.319871 41.403079v38.173051a183.230648 183.230648 0 0 1 0 37.145316c-1.468194 5.13868-8.221888 8.221888-8.515526 12.77329 0 10.570999 12.626471 13.213749 16.003317 19.086526-1.908653 10.717818 2.49593 24.665664 0 34.062108-1.615014 5.725958-6.313235 5.579138-7.340971 10.570999v122.594223a169.87008 169.87008 0 0 0 0 40.375343c1.908653 6.166416 12.479651 10.130541 14.681943 14.681943a97.634921 97.634921 0 0 1 4.257763 26.574317 1201.863849 1201.863849 0 0 1-2.055472 120.97921 116.280988 116.280988 0 0 1-2.055472 24.372025c-1.468194 4.257763-6.460055 7.194152-7.487791 10.570999-4.698222 16.443776 3.523666 38.026232 0 53.148633 0 4.845041 6.753694 3.817305 7.487791 8.515527a210.539062 210.539062 0 0 1 0 45.660843c-3.083208 4.698222-7.63461 4.110944-10.570999 8.515527a28.482969 28.482969 0 0 0-4.257763 11.598735c0 7.63461 10.570999 11.011457 7.340971 25.54658-1.027736 4.404583-2.789569 5.579138-7.340971 10.570999-2.349111 10.130541 2.936389 21.729276 0 32.887553-1.027736 4.110944-7.194152 7.487791-8.515527 11.745554-3.817305 12.77329 3.670486 34.208927 0 48.89087-1.174555 4.845041-7.047333 7.487791-7.340971 13.801026s10.717818 14.681943 7.340971 25.546581c9.543263 0 19.233345 1.761833 29.363886 2.055472a81.337964 81.337964 0 0 0 29.363886-1.027736c4.991861-1.908653 5.872777-7.340971 9.543263-10.570999a46.541759 46.541759 0 0 1 17.031053-9.543263 82.806158 82.806158 0 0 1 29.363886 5.2855c19.380165 5.285499 49.918606 11.305096 70.032868 0 4.845041-2.789569 5.432319-7.047333 11.598735-9.543263a183.230648 183.230648 0 0 1 48.89087-5.2855c69.44559-3.083208 150.636735 0 221.990977 1.027736v49.918606a311.697649 311.697649 0 0 0 0 48.89087c2.64275 14.681943 14.681943 24.078386 18.05879 35.089844h-80.750686a131.10975 131.10975 0 0 1-26.574317 0c-4.845041-1.468194-5.579138-6.166416-9.543263-8.515527-14.681943 0.734097-27.161594 1.027736-31.859816-8.515527-12.479651 2.202291-14.681943-5.13868-22.316553-8.515527h-39.641246c-23.637928 0-45.073565 3.670486-51.974078-10.570999-64.894188-1.615014-131.10975-2.055472-197.472133-2.202291a60.342785 60.342785 0 0 0-50.946342-12.773291 75.758826 75.758826 0 0 0-21.288817 13.801027c-7.340971 5.285499-14.681943 10.27736-20.114262 14.681943s-8.809166 11.598735-12.77329 14.681943c-21.141998-3.670486-53.589092-9.396443-72.235159 0-5.725958-2.055472-6.313235-9.102805-12.773291-10.570999 2.64275-6.900513 9.102805-9.983721 9.543263-19.086526a177.064232 177.064232 0 0 0 49.918606-35.089844c1.761833-10.570999-2.349111-24.225206 0-32.887552 1.761833-6.460055 7.047333-6.460055 8.515527-11.745554s-7.487791-6.019597-8.515527-11.598735c3.376847-22.463373-4.698222-41.843537 0-59.461869 1.321375-4.551402 7.194152-7.340971 8.515527-11.598735 2.349111-8.075069-2.202291-15.856498 0-23.344289 1.321375-4.698222 5.725958-5.285499 7.487791-9.543263 2.349111-17.177873-8.955985-20.70154-16.003318-29.363886v-103.507698c1.615014-4.110944 7.340971-3.964125 8.515527-8.515527-1.174555-14.681943-5.432319-40.522163 0-55.204105 1.908653-5.13868 5.432319-6.460055 7.487791-10.570999v-40.375343a208.48359 208.48359 0 0 1 0-40.375343c2.055472-8.809166 10.717818-13.507388 10.570999-22.316553s-7.194152-13.947846-10.570999-19.086526v-85.889366a154.45404 154.45404 0 0 0 0-29.363886c-1.321375-5.285499-5.13868-6.313235-7.487791-10.717819v-30.83208a136.688889 136.688889 0 0 1 0-30.83208c2.64275-8.662346 13.360568-9.543263 15.856499-17.031054-1.027736-19.967442 8.662346-57.406397-9.543263-62.691896a101.011767 101.011767 0 0 0 14.681943-37.145316 104.535434 104.535434 0 0 0-14.681943-49.918606 80.897506 80.897506 0 0 0-21.141998-2.202291 78.842034 78.842034 0 0 0-25.546581-31.859816 110.848669 110.848669 0 0 1-15.856498-12.773291c0-2.64275 8.515527-8.955985 9.543263-15.856498 0-1.468194 0-3.083208 1.027736-3.230028h11.745554c4.991861 0 3.817305 7.487791 8.515527 8.515527l60.342785 0.880917z" p-id="3310" fill="#4d4440"></path><path d="M1449.401407 1013.219262c-1.321375-19.086526 1.908653-33.915288 0-48.89087a239.022031 239.022031 0 0 0-11.745554-38.173052c-1.908653-6.166416-4.257763-12.479651-6.313236-19.086525a139.038 139.038 0 0 1-5.285499-19.086526 267.65182 267.65182 0 0 0 0-27.602053c-3.376847-14.681943-28.042511-27.602053-35.089844-44.045829a41.403079 41.403079 0 0 1-4.257763-19.086526c0.880917-6.166416 14.681943-20.70154 18.058789-26.574316a194.976202 194.976202 0 0 0 27.602053-58.727772 95.726268 95.726268 0 0 0 5.2855-38.173052c-1.761833-7.928249-14.681943-14.681943-22.316554-20.114262-18.792887-12.332832-35.530302-19.967442-54.176369-30.83208a44.926745 44.926745 0 0 0-30.83208-11.745554 146.819429 146.819429 0 0 1 6.313235 60.489605c3.817305 3.523666 9.102805 6.606874 13.801026 10.570999a130.816112 130.816112 0 0 0 13.801027 10.570999c-2.49593 11.011457-11.011457 15.856498-13.801027 26.574316a624.423033 624.423033 0 0 0-63.719632-1.027736 232.855615 232.855615 0 0 0-42.430815 14.681943c-14.681943 5.285499-29.363886 9.836902-42.430815 14.681943-9.543263-4.991861-6.753694-22.316553-14.681943-29.363886A228.89149 228.89149 0 0 1 1200.982932 698.144767c5.285499-6.019597 13.654207-10.130541 16.003318-17.031054s0-13.360568 2.055472-19.086526c4.404583-14.681943 14.681943-19.967442 29.363886-29.363886 0-5.725958-10.130541-5.725958-7.487791-10.570999-1.468194-14.681943 6.313235-29.363886 6.313236-45.660842 0-10.717818-4.845041-19.526984-3.230028-29.363886a30.538441 30.538441 0 0 1 11.598735-15.856499c1.761833-10.570999-2.349111-22.169734 0-30.83208 1.615014-6.019597 8.221888-7.047333 8.515527-12.77329-3.083208-5.285499-7.047333-5.13868-8.515527-10.570999s2.055472-15.56286 2.055472-21.288817c0-14.681943-4.110944-25.546581 1.027736-37.145316 3.083208-6.900513 9.249624-12.186013 12.77329-19.086526a124.356057 124.356057 0 0 0 9.543263-45.660842c2.64275-4.110944 7.928249-7.928249 9.543263-11.598735a324.470939 324.470939 0 0 0 7.487791-51.974078 144.617138 144.617138 0 0 1 15.856499-44.045829c3.523666-6.166416 9.836902-11.305096 10.570998-16.003318 1.321375-7.78143-3.376847-13.801026-2.202291-20.114262s6.166416-9.249624 10.570999-12.77329a283.214679 283.214679 0 0 1 21.288817-54.17637c2.936389-4.991861 9.249624-8.955985 10.570999-13.801026 2.64275-9.690082-2.349111-19.673804 0-29.363886a61.66416 61.66416 0 0 1 12.77329-18.05879c4.110944-3.523666 9.983721-3.670486 12.773291-7.48779 2.936389-17.471512-1.321375-58.727772 27.602053-45.660843 14.681943 6.460055 12.77329 27.014775 17.031053 44.045829a115.987349 115.987349 0 0 0 12.773291 26.574317c4.845041 8.809166 14.681943 16.884234 15.856498 23.344289a170.604177 170.604177 0 0 1 0 27.602053c2.349111 30.391622 19.233345 62.251438 29.363886 91.321685 5.13868 16.150137 7.928249 32.740733 11.598735 47.716314 1.908653 7.63461 4.404583 14.681943 6.313235 23.344289a170.604177 170.604177 0 0 0 5.2855 24.372026c2.055472 4.845041 7.928249 7.78143 9.543263 11.745554 1.468194 11.011457-1.908653 20.848359 0 29.363886 1.027736 4.845041 7.340971 8.662346 8.515527 13.801026s-2.055472 8.368707-1.027736 11.745555 7.340971 6.606874 8.515527 10.570999c-1.174555 11.598735 1.615014 27.014775 0 40.375343 0 3.230027-1.908653 6.606874-2.055472 9.543263a324.911397 324.911397 0 0 0 7.48779 65.775104 346.787492 346.787492 0 0 1 5.2855 44.045829c1.908653 43.164912 1.761833 96.313546 0 134.780236a166.052775 166.052775 0 0 1-2.202292 29.363886c-1.761833 6.606874-7.487791 14.681943-10.570998 23.344289-8.368707 23.19747-14.681943 51.974078-29.363886 70.032868-2.055472 14.681943 2.789569 28.482969 0 41.403079-1.027736 4.991861-5.725958 9.396443-7.487791 13.801026-5.872777 14.681943-6.313235 32.740733-15.856499 44.045829-1.615014 8.075069 2.202291 16.296957 0 24.372025-1.027736 3.670486-6.313235 6.753694-7.340971 10.570999-3.083208 10.424179 2.64275 22.022914 0 31.859817-1.468194 5.13868-7.63461 8.955985-11.745554 11.598734-7.928249 2.936389-11.451915 0.293639-18.352429 3.964125z m-63.719632-628.533977c-8.221888 8.955985-9.836902 24.225206-18.05879 30.83208-1.321375 1.027736-5.579138 1.468194-5.2855 5.285499-2.202291 9.249624 0 17.91197-2.055472 27.602053s-5.285499 15.709679-6.313235 23.344289c-3.376847 23.931567 4.698222 46.24812 0 71.207424a91.028046 91.028046 0 0 1 60.489605 12.77329 74.73109 74.73109 0 0 0 32.887552 14.681943c1.174555-30.83208 2.49593-67.683757 1.027736-99.837212a158.271345 158.271345 0 0 0 0-18.05879c0-2.936389-3.230027-7.487791-4.257764-11.598735-4.698222-18.939706-2.202291-44.045829-13.801026-51.974078s-20.407901-3.817305-27.602053-9.543263-8.515527-14.681943-15.856498-26.574316c0.587278 11.598735-2.49593 20.114262-1.174555 31.859816z" p-id="3311" fill="#4d4440"></path><path d="M1332.679961 48.028333c2.055472 8.075069-3.817305 14.681943-6.313236 20.114262a152.398568 152.398568 0 0 1-26.721136 50.359064 60.930063 60.930063 0 0 1-5.2855 39.347607c-4.845041 7.928249-16.443776 13.213749-18.058789 20.114262s1.761833 13.213749 1.027736 19.086526c-1.468194 12.332832-9.249624 14.681943-17.031054 23.344289a384.226447 384.226447 0 0 1-12.773291 70.032868 91.615324 91.615324 0 0 0-9.983721 24.078387 112.170044 112.170044 0 0 0 1.027736 12.77329c0 13.507388-1.468194 27.748872-2.055472 41.403079a140.212555 140.212555 0 0 1-1.027736 32.887552c-1.174555 3.670486-4.698222 6.019597-6.313235 9.543263a305.237594 305.237594 0 0 0-9.543263 36.11758 77.961117 77.961117 0 0 1-14.681943 30.83208v27.602053c-5.285499 13.213749-20.55472 18.939706-23.344289 32.887552a242.398878 242.398878 0 0 0 0 44.045829 340.327437 340.327437 0 0 1 0 44.045828 211.273159 211.273159 0 0 1-11.745555 33.915289 269.707292 269.707292 0 0 0-11.745554 33.915288c-2.055472 14.681943 1.174555 27.455233 0 39.347607-2.49593 27.308414-16.150137 45.367204-29.363886 66.94966 0 20.261081-11.451915 33.768469-12.77329 48.89087 6.900513 6.166416 6.460055-6.753694 12.77329-7.487791 11.745554 9.102805 28.482969 0 44.045829 1.027736 5.725958-8.662346 3.083208-18.792887 8.515527-26.574317 8.368707-12.186013 26.133858-13.507388 40.375343-19.086526 6.900513-2.789569 14.681943-9.396443 24.372025-13.801026 21.141998-9.836902 40.962621-15.856498 48.89087-38.319871 6.753694 2.64275 6.313235 8.809166 12.773291 10.570999 10.27736 3.083208 26.133858-3.230027 36.117579 0a35.236663 35.236663 0 0 1 14.681943 22.316553c0 5.13868-6.166416 10.864638-7.487791 17.031054a46.541759 46.541759 0 0 0 0 14.681943c1.027736 6.019597 6.019597 9.836902 7.487791 17.031054a233.296073 233.296073 0 0 1 0 37.145315 177.357871 177.357871 0 0 1 0 36.11758c-1.468194 5.285499-11.158277 9.983721-8.515527 17.031054h-117.455543c-4.845041-0.880917-3.670486-7.63461-8.515527-8.515527-13.213749 0-24.665664-6.166416-35.089844-4.257764s-19.086526 16.884234-29.363886 19.086526c-24.665664 3.083208-46.101301-1.468194-67.977396 2.055472-15.856498 2.64275-29.363886 16.150137-46.688578 14.681943-8.368707-7.63461-8.221888-16.443776-7.487791-33.915288a220.229144 220.229144 0 0 1 0-29.363886c1.761833-6.606874 9.543263-9.836902 10.570999-14.681943a40.081704 40.081704 0 0 0-1.321375-19.086526c3.376847-7.047333 13.801026-8.075069 17.031054-17.031054a47.129037 47.129037 0 0 0-1.027736-25.54658c2.936389-5.432319 9.249624-6.606874 10.570999-12.773291s-2.64275-13.507388-2.055472-20.114261 5.579138-12.039193 7.487791-18.05879a91.174866 91.174866 0 0 0 3.230027-24.518845 139.918916 139.918916 0 0 0-3.230027-36.11758c-1.468194-5.285499-6.606874-9.983721-8.515527-14.681943a165.171858 165.171858 0 0 1-6.313236-65.775104 339.446521 339.446521 0 0 1 6.313236-66.94966 325.351856 325.351856 0 0 1 11.598735-31.859816c11.305096-29.363886 24.812484-62.398257 35.089843-92.349421 0-6.019597-6.753694-6.606874-7.487791-14.681943s7.340971-14.681943 10.570999-23.344289a122.300585 122.300585 0 0 0 2.055472-23.344289 98.515837 98.515837 0 0 1 11.745555-23.34429 85.302088 85.302088 0 0 0 11.598735-29.363886c1.027736-7.928249-1.321375-16.590596 0-25.54658a118.776918 118.776918 0 0 1 11.598735-29.363886 328.288244 328.288244 0 0 1 35.089843-64.747369c3.523666-4.551402 7.63461-7.047333 8.515527-10.570998 2.202291-8.221888-1.321375-16.150137 0-22.316554s5.725958-6.313235 7.487791-12.77329c-10.864638-11.158277-29.363886 0-44.045829-4.257764-6.753694-2.349111-7.928249-10.864638-12.77329-12.77329a36.704857 36.704857 0 0 0-19.086526 0 69.739229 69.739229 0 0 0-17.031054 4.257764c-12.479651 6.900513-19.820623 40.375343-23.344289 58.727771-4.257763 21.876095-6.166416 53.295453-20.114262 60.489605-10.424179 5.432319-19.526984-2.202291-22.316553 11.598735a81.631603 81.631603 0 0 1-14.681943-12.77329 78.988853 78.988853 0 0 0 4.257763-17.031054c0-8.515527-4.845041-17.177873-4.257763-24.518845s9.836902-12.479651 11.745554-19.086526a185.873398 185.873398 0 0 0 0-36.117579v-107.178184a7.928249 7.928249 0 0 1 3.230028-2.202291h266.036806c4.110944 1.615014 5.13868 6.166416 7.487791 9.543263 2.49593-1.027736 8.075069-1.761833 9.543263 1.174555zM286.738346 357.083232a33.768469 33.768469 0 0 0 19.086525 12.77329c6.606874 2.349111 20.70154 2.64275 24.372026 7.487791 11.158277 14.681943-12.77329 29.363886-5.2855 40.375343 3.670486 5.13868 3.817305-0.880917 8.515527 1.027736 9.396443 7.63461 13.654207 20.407901 23.344289 27.602053-4.991861 26.133858-13.507388 67.243299-1.027736 91.321685 4.698222 8.955985 12.92011 10.717818 17.031054 19.086526-11.598735 45.514023 12.77329 110.408211-3.230027 148.728082-2.202291 5.285499-8.662346 10.570999-9.543263 16.003318a97.634921 97.634921 0 0 0 3.230027 24.372025 100.42449 100.42449 0 0 1-2.055472 50.946342 169.72326 169.72326 0 0 1-8.515527 23.344289 406.836639 406.836639 0 0 0-24.372025 41.403079 270.735028 270.735028 0 0 0-10.570999 55.204106 306.705788 306.705788 0 0 0-62.691896 36.11758 71.794701 71.794701 0 0 0-26.574317 27.602052c-21.729276 3.817305-46.39494 4.698222-60.489605 15.856499-8.075069 0-9.690082-11.158277-18.05879-11.745555s-11.892374 11.158277-19.086525 13.801027a74.437451 74.437451 0 0 1-22.316554 2.055472 268.092278 268.092278 0 0 1-45.514023-5.2855c-8.221888 5.285499-19.233345 0-30.83208 0a29.363886 29.363886 0 0 0-6.460055 0c-1.468194 0-3.230027 3.083208-3.230027 3.230028-4.257763-0.734097-14.681943-13.360568-15.856499-14.681943a115.106433 115.106433 0 0 0 29.363886-14.681943c4.845041-23.637928 14.681943-45.220384 17.031054-69.005132 1.027736-9.690082 0-19.820623 0-29.363886 0.880917-20.995178 3.083208-42.724454 3.230027-63.719632 0-37.585774-7.340971-75.171548-9.543262-113.638239-2.789569-50.212245 3.964125-100.27767 2.055472-151.81129 1.615014-4.698222 9.543263-3.083208 11.745554-7.48779-1.468194-13.360568 1.321375-25.987039-1.027736-39.347608-0.880917-4.991861-5.432319-8.809166-6.460055-13.801026a213.769089 213.769089 0 0 1 1.027736-42.430815c0-6.166416-0.880917-12.77329 0-18.05879s7.047333-11.158277 8.515527-18.05879a48.156773 48.156773 0 0 0-9.543263-40.375343V212.612914a229.331949 229.331949 0 0 1 0-48.89087c1.615014-5.725958 5.432319-5.579138 8.515527-10.570999-2.349111-8.809166 1.468194-15.856498-2.055472-20.114262s-8.662346 0-18.05879-2.055472c-3.230027-1.908653-1.468194-5.725958-3.230027-8.515527-5.872777-9.690082-19.673804-16.296957-27.602053-25.546581a129.935195 129.935195 0 0 0-9.543263-12.77329c2.349111-6.606874 0-13.654207 1.027736-19.086526s7.487791-8.809166 9.543263-12.77329c11.305096-1.174555 25.399761 1.615014 38.173052 0 7.63461-1.027736 14.681943-4.110944 22.316553-5.2855 43.899009-7.487791 99.543573-1.908653 149.902637-6.313235a187.047953 187.047953 0 0 1 53.148634 2.202291c4.404583 2.055472 3.817305 7.047333 6.313235 10.570999a102.773601 102.773601 0 0 0 16.443776 13.654207c27.748872-1.908653 39.788065 17.765151 49.918606 36.11758a124.943334 124.943334 0 0 1 15.856499 46.688578c1.027736 10.864638 0 23.491109 2.055472 36.11758a110.55503 110.55503 0 0 1 1.027736 44.045829 101.011767 101.011767 0 0 1-9.543263 17.031053c-19.967442 36.851677-42.724454 85.155269-70.473326 109.967753z m-96.607185-193.214369c-1.174555 4.110944-6.606874 3.964125-7.340971 8.515527v147.553526a27.748872 27.748872 0 0 1 18.058789 1.027736c9.102805-6.313235 10.130541-18.646068 15.856499-27.602052a46.39494 46.39494 0 0 1 36.117579-20.114262c0.734097-23.637928-3.083208-51.974078 7.487791-65.775104a67.096479 67.096479 0 0 1-7.487791-29.363886c2.789569-4.257763 8.515527-5.725958 11.745555-9.543263-9.396443-3.376847-12.77329 0-21.288818-3.230028s-9.396443-13.213749-14.681942-14.681943c-11.305096-3.376847-23.19747 6.753694-36.11758 3.230028 0-1.468194 4.698222-5.579138 0-5.2855a48.450412 48.450412 0 0 0-2.349111 15.269221z m-7.340971 331.224633c-0.734097 3.376847-3.523666 5.432319-4.257764 8.515527-4.551402 17.618332 4.698222 33.768469 4.257764 49.918606 0 12.77329-7.78143 25.252942-7.487791 38.173051-5.432319 2.055472-8.809166 5.13868-8.515527 10.570999s6.166416 6.460055 8.515527 10.570999v145.498055a31.125719 31.125719 0 0 0-10.717819 20.848359 497.717866 497.717866 0 0 0 0 62.691896 126.11789 126.11789 0 0 0 3.083208 29.363886c-4.845041 8.515527-9.543263 17.324693-13.801026 26.574317 23.931567 1.321375 26.721136-18.646068 45.660843-22.316554a318.010884 318.010884 0 0 0 27.602052-29.363886 80.016589 80.016589 0 0 0 9.543263-9.543263c9.690082-16.003318 2.349111-40.668982 7.487791-63.719632a205.547201 205.547201 0 0 0 17.031054-73.409715c0-4.698222-5.579138-3.670486-6.313236-7.48779 10.424179-5.725958 4.404583-17.031054 1.027736-26.574317a51.239981 51.239981 0 0 1-5.285499-29.363886c0-3.230027 7.047333-7.487791 8.515527-13.801026 3.670486-16.296957-7.340971-20.55472-10.570999-29.363886-7.047333-19.233345 4.551402-32.740733 6.313235-50.946342 0-3.817305-4.551402-3.964125-5.285499-7.487791 9.836902-11.598735-4.551402-27.455233-7.340972-32.887552 2.202291 0 6.900513 1.321375 7.340972-1.027736a25.6934 25.6934 0 0 1-6.313236-12.773291c0-4.404583 4.257763-4.257763 3.230028-9.543263a68.858312 68.858312 0 0 0-24.372025-24.372025 354.715741 354.715741 0 0 1-39.200788-35.089844c-1.321375 27.602053 4.698222 53.148633-0.293639 76.346104h0.14682zM760.231005 47.000597c78.401575-3.230027 158.271345 1.027736 237.847476 0 2.202291 13.213749-2.789569 29.363886 0 44.045829 1.027736 5.13868 6.460055 10.424179 7.487791 14.681943a212.300895 212.300895 0 0 1 0 37.145316v108.352739c-2.055472 4.404583-6.313235 6.753694-8.515527 12.77329a62.985535 62.985535 0 0 0 1.027736 37.145316c-25.987039 23.931567-31.419358 68.417854-49.918606 99.837211v36.11758c-23.05065 10.570999-51.3868 24.812484-39.347607 65.775104-1.761833 4.551402-7.928249 5.872777-11.745554 9.543263a217.586394 217.586394 0 0 0-32.887553 58.727772c-4.551402 10.130541-8.662346 21.729276-12.77329 32.887552a181.468815 181.468815 0 0 0-11.598735 33.915289c-0.880917 6.313235 1.174555 13.654207 0 20.114261a264.274973 264.274973 0 0 1-11.598735 29.363886c-9.102805 25.6934-17.471512 51.093161-29.363886 75.465187-1.908653 4.110944-5.579138 9.102805-4.257763 13.801026 9.249624 7.928249 19.526984 0 27.602053-4.257763a127.145626 127.145626 0 0 1 24.518844-12.773291c7.047333-1.468194 12.92011 0 19.086526-2.055472a42.430815 42.430815 0 0 0 15.856498-5.285499 81.778422 81.778422 0 0 0 15.856499-23.344289c12.039193-18.792887 26.427497-40.081704 53.148633-44.045829a67.977396 67.977396 0 0 1 17.031054-36.11758c3.670486 2.055472 3.670486 7.63461 7.487791 9.543263 18.352429-4.257763 17.177873-27.748872 27.455233-40.668982h23.34429a117.455544 117.455544 0 0 0 4.257763 49.918606c-2.349111 4.257763-7.487791 3.523666-10.570999 7.487791-1.174555 1.615014-2.349111 6.900513-4.257763 10.570999a41.696718 41.696718 0 0 0-6.313236 13.801026c-4.110944 31.272538 2.49593 81.925242 2.055472 114.665975a50.505884 50.505884 0 0 0-34.062107 17.031054h-87.210742c-5.285499-0.734097-4.257763-7.928249-8.515526-9.543263-6.753694 2.49593-9.836902 0-14.681943 1.027736-10.424179 2.936389-12.92011 15.709679-21.288818 17.031053-11.305096 1.615014-20.70154-7.928249-30.83208-12.77329h-58.727772c-4.257763-4.551402-10.570999-8.662346-10.570998-14.681943s7.63461-10.864638 11.745554-16.003318c2.789569-17.177873-3.817305-33.621649 0-47.716314 1.174555-4.551402 6.753694-7.487791 7.487791-11.598735 1.908653-11.451915-10.424179-27.161594-17.031054-32.887552a30.685261 30.685261 0 0 0 7.487791-17.031054c0-6.313235-5.285499-11.598735-6.460055-17.031054a147.700346 147.700346 0 0 1 4.551402-52.267717c1.761833-10.130541 2.349111-21.582456 4.257764-29.363886 1.174555-4.404583 4.991861-8.515527 6.313235-12.77329 3.817305-11.892374 2.64275-24.812484 6.313236-35.089844 6.753694-18.646068 21.876095-30.83208 30.83208-44.045828a123.47514 123.47514 0 0 1 33.915288-66.94966 522.23671 522.23671 0 0 1 19.086526-76.052465 55.204105 55.204105 0 0 1 29.363886-36.117579c5.872777-18.792887 20.261081-29.363886 31.859816-42.430815a73.409715 73.409715 0 0 1 0-48.89087c2.936389-5.432319 8.662346-7.928249 12.77329-12.773291 14.681943-17.618332 26.280678-42.137176 42.430815-55.204105V106.462466c-15.856498 0-31.125719 0-46.688578-1.027736a161.501372 161.501372 0 0 0-37.145316 0 130.375653 130.375653 0 0 0-21.288817 10.570999 50.359064 50.359064 0 0 0-28.33615 50.946342 38.46669 38.46669 0 0 0-31.859816 18.05879c-2.64275 23.19747 3.670486 47.422676 0 67.977396a55.057286 55.057286 0 0 1-7.78143 17.031053 52.708175 52.708175 0 0 1-10.570999 14.681943 20.407901 20.407901 0 0 1-8.515527-23.344289c-1.321375-5.13868-6.606874-6.166416-8.515527-10.570999a233.149254 233.149254 0 0 0-7.48779-40.375343c3.670486-14.681943 11.305096-36.264399 5.285499-51.974078-3.083208-8.075069-8.809166-10.130541-13.801026-16.003318 3.083208-23.344289-4.110944-50.065425 0-71.060603 1.615014-8.662346 10.27736-13.947846 8.515527-22.316554-0.440458-1.174555-0.880917-1.761833-1.761834-2.055472zM554.243346 48.028333a626.184866 626.184866 0 0 0 149.755818 0 29.363886 29.363886 0 0 1 13.801026 30.83208c-16.003318 5.13868-44.045829 19.820623-42.430815 41.40308 0 7.78143 8.955985 12.626471 8.515527 22.316553s-9.543263 12.186013-11.745554 20.261081a208.777229 208.777229 0 0 0 1.027736 44.045829c2.055472 48.303592 3.964125 102.773601 1.027736 152.985845 0 8.955985-2.64275 17.765151-2.055472 24.372026a86.623463 86.623463 0 0 0 3.230027 9.543262c3.083208 13.507388 5.725958 26.574317 8.515527 40.375344-6.313235 7.047333-13.360568 10.130541-14.681943 21.288817a370.719059 370.719059 0 0 0 3.230028 57.406397c0 5.725958 0 11.305096 1.027736 15.856498s2.789569 7.047333 3.230027 10.570999a82.21888 82.21888 0 0 1-1.027736 27.602053c-2.349111 6.460055-13.360568 12.332832-14.681943 19.086526a79.86977 79.86977 0 0 0 3.964125 25.840219c1.908653 8.955985 1.908653 18.352429 3.230027 26.574317a85.302088 85.302088 0 0 0 5.2855 15.856498 109.233655 109.233655 0 0 1 6.313235 14.681943 158.564984 158.564984 0 0 1-2.202291 29.363886 112.904141 112.904141 0 0 1-2.055472 27.602053c-1.908653 4.991861-10.864638 10.130541-11.598735 16.003318a84.421172 84.421172 0 0 0 8.515527 33.915288c4.991861 8.075069 16.590596 11.451915 25.54658 17.031054s18.205609 12.626471 24.372026 17.031053c1.615014 9.396443 2.202291 19.673804 4.257763 29.363886-9.983721-3.817305-29.363886-7.340971-38.173052 0a136.101611 136.101611 0 0 0-56.231841-3.230027 135.220694 135.220694 0 0 0-34.062108 4.257763c-8.221888 3.230027-13.947846 14.681943-20.114262 14.681943-8.955985 0-14.681943-10.570999-18.058789-13.801026 11.745554-14.681943 20.70154-30.9789 38.173051-39.347607a500.507435 500.507435 0 0 0 5.2855-79.576131 146.819429 146.819429 0 0 1 1.027736-26.574317c1.468194-5.432319 6.753694-7.487791 7.487791-12.77329 1.027736-8.075069-5.725958-13.213749-7.487791-22.316553a67.536938 67.536938 0 0 1 1.761833-28.189331c1.468194-4.991861 6.313235-9.249624 7.487791-14.681943a363.084449 363.084449 0 0 0 0-50.946342c0-80.016589-2.055472-164.58458-2.055472-241.077503a193.361188 193.361188 0 0 1 0-39.347607c1.468194-4.991861 2.349111-4.551402 7.487791-8.515527 0-4.404583-6.606874-2.64275-7.487791-6.313235-2.936389-44.045829-6.166416-101.452226-8.515527-150.783554a80.603867 80.603867 0 0 0-2.202292-20.114262c-5.285499-14.681943-27.455233-7.487791-32.887552-22.316553a27.161594 27.161594 0 0 1-10.570999-1.027736 132.137486 132.137486 0 0 0-13.801026-13.801027 73.409715 73.409715 0 0 1 10.570999-15.41604z" p-id="3312" fill="#4d4440"></path></svg>